<?xml version="1.0" ?><!DOCTYPE svg  PUBLIC '-//W3C//DTD SVG 1.1//EN'  'http://www.w3.org/Graphics/SVG/1.1/DTD/svg11.dtd'><svg enable-background="new -71.355 159.323 38.952 38.886" height="38.886px" id="Layer_1" version="1.1" viewBox="-71.355 159.323 38.952 38.886" width="38.952px" xml:space="preserve" xmlns="http://www.w3.org/2000/svg" xmlns:xlink="http://www.w3.org/1999/xlink"><g><g><path d="M-51.879,163.186c-10.425,0-18.9,8.188-19.437,18.479c0.912-2.456,6.912-3.456,9.912-3.456c0-4,4-9,5-10    c-1.989,4.973-2.011,11.932-2.001,13.963c0,0.006,0.001,0.01,0.001,0.014c0,0.002,0,0.006-0.001,0.008    c0,0.005,0.001,0.012,0.001,0.017h0.05c0-0.008-0.05,0.008-0.05,0c0-2.634,2.947-4.791,6.524-4.791    c3.569,0,6.464,2.126,6.475,4.753c0.01-2.033-0.01-8.99-1.999-13.962c2,2,5,7,5,10c3,0,9,1,9.96,3.456    C-32.979,171.374-41.455,163.186-51.879,163.186z" fill="#363636"/><polygon fill="#363636" points="-32.404,182.209 -32.403,182.209 -32.404,182.197   "/><polygon fill="#363636" points="-71.354,182.197 -71.355,182.209 -71.354,182.209   "/></g><path d="M-53.403,180.209v13c0,1.104-0.897,2-2,2s-2-0.896-2-2v-1h-3v1c0,2.762,2.239,5,5,5c2.761,0,5-2.238,5-5   v-13H-53.403z" fill="#363636"/><path d="M-51.879,161.186c0.732,0,1.76-0.045,2.476,0.023c-0.116-1.104-1.341-1.886-2.476-1.886   c-1.135,0-2.408,0.78-2.524,1.886C-53.688,161.141-52.612,161.186-51.879,161.186z" fill="#363636"/></g></svg>